<?xml version="1.0" encoding="utf-8"?>
<!-- Generator: Adobe Illustrator 27.5.0, SVG Export Plug-In . SVG Version: 6.00 Build 0)  -->
<svg version="1.1" id="Layer_1" xmlns="http://www.w3.org/2000/svg" xmlns:xlink="http://www.w3.org/1999/xlink" x="0px" y="0px"
	 viewBox="0 0 414 211.2" style="enable-background:new 0 0 414 211.2;" xml:space="preserve">
<style type="text/css">
	.st0{fill:#231F20;}
	.st1{fill:#8DC63F;}
	.st2{fill:#FFFFFF;}
	.st3{fill:none;stroke:#8DC63F;stroke-width:3.7538;stroke-linecap:round;stroke-linejoin:round;stroke-miterlimit:10;}
	.st4{fill:#FFFFFF;stroke:#231F20;stroke-width:4.5133;stroke-linecap:round;stroke-linejoin:round;stroke-miterlimit:10;}
	.st5{fill:none;stroke:#231F20;stroke-width:4.5133;stroke-linecap:round;stroke-linejoin:round;stroke-miterlimit:10;}
	.st6{fill:#8DC63F;stroke:#231F20;stroke-width:4.5133;stroke-linecap:round;stroke-linejoin:round;stroke-miterlimit:10;}
	.st7{fill:none;stroke:#8DC63F;stroke-width:2.7012;stroke-linecap:round;stroke-linejoin:round;stroke-miterlimit:10;}
	.st8{fill:#FFFFFF;stroke:#231F20;stroke-width:3.2477;stroke-linecap:round;stroke-linejoin:round;stroke-miterlimit:10;}
	.st9{fill:none;stroke:#231F20;stroke-width:3.2477;stroke-linecap:round;stroke-linejoin:round;stroke-miterlimit:10;}
	.st10{fill:#8DC63F;stroke:#231F20;stroke-width:3.2477;stroke-linecap:round;stroke-linejoin:round;stroke-miterlimit:10;}
</style>
<g>
	<g>
		<g>
			<path class="st0" d="M9,173.4c0,11,7.4,18.7,18.8,18.7c3.8,0,7.4-0.9,10.7-2.4c0.5-0.2,1-0.3,1.6-0.3c2.1,0,3.8,1.7,3.8,3.8
				c0,1.5-0.9,2.9-2.2,3.5c-3.8,1.8-8.5,2.9-13.9,2.9C11.6,199.6,0,188.4,0,173.4c0-15,11.6-26.2,27.8-26.2c5.4,0,10.1,1.1,13.9,2.9
				c1.3,0.6,2.2,1.9,2.2,3.5c0,2.1-1.7,3.8-3.9,3.8c-0.6,0-1.1-0.1-1.6-0.3c-3.3-1.5-6.8-2.4-10.7-2.4C16.4,154.7,9,162.4,9,173.4z"
				/>
			<path class="st0" d="M59.4,145.6v49.7c0,2.2-1.8,4-3.9,4c-2.2,0-3.9-1.8-3.9-4v-49.7c0-2.2,1.8-4,3.9-4
				C57.6,141.6,59.4,143.4,59.4,145.6z"/>
			<path class="st0" d="M68.6,148.7c0-2.9,2.2-5.2,5.2-5.2c2.9,0,5.2,2.3,5.2,5.2c0,3-2.3,5.2-5.2,5.2
				C70.8,153.9,68.6,151.7,68.6,148.7z M77.7,165v30.3c0,2.2-1.8,4-3.9,4c-2.2,0-3.9-1.8-3.9-4V165c0-2.2,1.8-4,3.9-4
				C76,161.1,77.7,162.9,77.7,165z"/>
			<path class="st0" d="M94.9,173.4c0,11,7.4,18.7,18.8,18.7c3.8,0,7.4-0.9,10.7-2.4c0.5-0.2,1-0.3,1.6-0.3c2.1,0,3.8,1.7,3.8,3.8
				c0,1.5-0.9,2.9-2.2,3.5c-3.8,1.8-8.5,2.9-13.9,2.9c-16.2,0-27.8-11.2-27.8-26.2c0-15,11.6-26.2,27.8-26.2
				c5.4,0,10.1,1.1,13.9,2.9c1.3,0.6,2.2,1.9,2.2,3.5c0,2.1-1.7,3.8-3.9,3.8c-0.6,0-1.1-0.1-1.6-0.3c-3.3-1.5-6.8-2.4-10.7-2.4
				C102.4,154.7,94.9,162.4,94.9,173.4z"/>
			<path class="st0" d="M173.5,191.4c2,0,3.7,1.6,3.7,3.7c0,2.1-1.7,3.7-3.7,3.7h-30.9c-2.8,0-4.3-1.6-4.3-4.3v-42.2
				c0-2.8,1.6-4.3,4.3-4.3h30.2c2,0,3.7,1.6,3.7,3.7c0,2.1-1.7,3.7-3.7,3.7h-26.3v13.5H169c2,0,3.7,1.6,3.7,3.7
				c0,2.1-1.7,3.7-3.7,3.7h-22.5v15H173.5z"/>
			<path class="st0" d="M197.7,178.4c0-1.9,1.6-3.5,3.5-3.5h19.4c1.9,0,3.6,1.6,3.6,3.5c0,2-1.6,3.6-3.6,3.6h-19.4
				C199.3,182,197.7,180.5,197.7,178.4z"/>
			<path class="st0" d="M295.3,173.3c0,14.9-10.6,25.5-26.1,25.5h-16.3c-2.8,0-4.3-1.6-4.3-4.3v-42.2c0-2.8,1.6-4.3,4.3-4.3h16.3
				C284.7,147.9,295.3,158.4,295.3,173.3z M286.3,173.3c0-11-7.3-17.9-17.2-17.9h-12.4v35.9h12.4C279,191.4,286.3,184.3,286.3,173.3
				z"/>
			<path class="st0" d="M302.2,148.7c0-2.9,2.2-5.2,5.2-5.2c2.9,0,5.2,2.3,5.2,5.2c0,3-2.3,5.2-5.2,5.2
				C304.5,153.9,302.2,151.7,302.2,148.7z M311.4,165v30.3c0,2.2-1.8,4-3.9,4c-2.2,0-3.9-1.8-3.9-4V165c0-2.2,1.8-4,3.9-4
				C309.6,161.1,311.4,162.9,311.4,165z"/>
			<path class="st0" d="M364.6,164.8c0,9.4-6.9,16.9-19.4,16.9h-14.3v13.4c0,2.2-1.9,4.2-4.1,4.2c-2.2,0-4.1-1.9-4.1-4.2v-42.8
				c0-2.8,1.6-4.3,4.3-4.3h18.2C357.7,147.9,364.6,155.4,364.6,164.8z M355.6,164.8c0-5.4-3.6-9.4-10.4-9.4h-14.3v18.7h14.3
				C352,174.2,355.6,170.2,355.6,164.8z"/>
			<path class="st0" d="M414,164.8c0,9.4-6.9,16.9-19.4,16.9h-14.3v13.4c0,2.2-1.9,4.2-4.1,4.2c-2.2,0-4.1-1.9-4.1-4.2v-42.8
				c0-2.8,1.6-4.3,4.3-4.3h18.2C407.1,147.9,414,155.4,414,164.8z M405,164.8c0-5.4-3.6-9.4-10.4-9.4h-14.3v18.7h14.3
				C401.4,174.2,405,170.2,405,164.8z"/>
		</g>
	</g>
	<g>
		<g>
			<path d="M120.6,100.1c2-2.7,4.9-4,7.9-5.1c15.6-5.7,31.3-11.5,46.9-17.3c2.2-0.8,2.8-0.6,3.9,1.4c2.4-0.9,4.7-1.8,7.2-2.7
				c-0.2-1.4-0.5-3.1-0.7-4.7c-3.8-33.2,23.4-61.9,56.7-59.9c5.2,0.3,10.2,1.3,15,3c0.3,0.1,0.6,0.1,1,0.2c2.4,1.1,4.7,2.2,7.1,3.3
				c2.3,1.6,4.7,3.1,7,4.8c17.2,13.3,24.6,35.5,19.1,56.6c-7.6,28.7-37.4,46-66,38.2c-14.3-3.9-25.3-12.3-32.8-25.1
				c-0.2-0.4-0.5-0.7-0.6-1c-2.4,0.9-4.7,1.8-7.1,2.7c0.3,2.6,0.1,2.8-2.5,3.8c-16.2,6-32.3,11.9-48.5,17.9
				c-6.7,2.5-13.5-1-14.8-7.8c-0.3-1.7,0-3.5,0-5.3C119.7,102,120.2,101,120.6,100.1z M260.1,20.4c-24.9-11.4-54.4-0.5-65.8,24.3
				c-11.5,24.9-0.5,54.5,24.4,65.9c24.9,11.4,54.4,0.5,65.8-24.3C296,61.5,285,31.8,260.1,20.4z M167.5,85.3c-0.3,0.1-0.6,0.2-1,0.3
				c-12.8,4.7-25.6,9.5-38.5,14.2c-0.4,0.1-0.8,0.3-1.2,0.5c-4.1,2-4.8,7.6-1.3,10.6c2.2,1.9,4.5,2,7.1,1
				c12.8-4.7,25.5-9.4,38.3-14.2c0.4-0.1,0.7-0.3,1-0.4C170.4,93.3,169,89.3,167.5,85.3z M172,83.7c1.5,3.9,2.9,7.9,4.4,11.7
				c1.1-0.4,2.4-0.8,3.4-1.2c-1.5-4-2.9-8-4.4-11.8C174.4,82.9,173.1,83.3,172,83.7z M183.4,89.9c2.2-0.8,4.4-1.6,6.5-2.4
				c-0.8-2.1-1.6-4.3-2.3-6.3c-2.1,0.8-4.3,1.6-6.5,2.4C181.8,85.6,182.6,87.7,183.4,89.9z"/>
			<path class="st1" d="M167.5,85.3c1.5,4.1,3,8,4.4,12.1c-0.3,0.1-0.6,0.3-1,0.4c-12.8,4.7-25.6,9.4-38.3,14.2c-2.6,1-5,0.9-7.1-1
				c-3.5-3-2.7-8.6,1.3-10.6c0.4-0.2,0.8-0.3,1.2-0.5c12.8-4.7,25.6-9.5,38.5-14.2C166.8,85.4,167.2,85.3,167.5,85.3z"/>
			<path class="st2" d="M172,83.7c1.1-0.4,2.3-0.9,3.4-1.2c1.4,3.8,2.9,7.8,4.4,11.8c-1,0.3-2.3,0.8-3.4,1.2
				C175,91.6,173.5,87.6,172,83.7z"/>
			<path class="st2" d="M183.4,89.9c-0.8-2.2-1.6-4.3-2.3-6.3c2.2-0.8,4.4-1.6,6.5-2.4c0.7,2,1.5,4.2,2.3,6.3
				C187.8,88.3,185.6,89.1,183.4,89.9z"/>
		</g>
		<g>
			<path class="st3" d="M217.5,29.9c3.3-2.1,6.9-3.7,10.9-4.9c9.9-2.9,19.9-1.9,28.6,1.9"/>
			<path class="st3" d="M277.7,46.3c1.2,2.4,2.2,4.9,3,7.5c6.5,22.4-6.4,45.8-28.8,52.3c-22.4,6.5-45.8-6.4-52.3-28.8
				c-1.4-4.9-1.9-9.8-1.6-14.6"/>
		</g>
		<g>
			<path class="st4" d="M216.5,76.8l-4.3-17.5c-0.4-1.5,0.1-3.1,1.2-4.2l13.4-13.4c1.1-1.1,2.7-1.5,4.2-1.2l17.5,4.3
				c0.8,0.2,1.5,0.6,2.1,1.2l39.5,39.5c1.7,1.7,1.7,4.5,0,6.2l-26.7,26.7c-1.7,1.7-4.5,1.7-6.2,0l-39.5-39.5
				C217.1,78.3,216.7,77.6,216.5,76.8z"/>
			<path class="st5" d="M232.5,53.3c2.1,2.1,2.1,5.5,0,7.5c-2.1,2.1-5.5,2.1-7.5,0c-2.1-2.1-2.1-5.5,0-7.5
				C227.1,51.2,230.5,51.2,232.5,53.3z"/>
			<line class="st5" x1="213.4" y1="41.7" x2="226.5" y2="54.8"/>
			<g>
				<path class="st6" d="M248.7,59.5c0.6,2,1.9,4.9,4.4,7.6c2.8,3,6.9,4.5,11.2,6.7c3.9,2,7.3,4.2,9.6,7.8c0.7,1.1,1.2,2.2,1.5,3.3
					c1.7,5.2-1.8,10.3-5.5,13.3c-6,4.8-13.3,2.9-14.5,2.6c-7.7-2.2-10.9-9.2-11.6-10.8c-3.5-7.7-1.1-15.5,0.5-20.7
					C245.5,65,247.3,61.7,248.7,59.5z"/>
				<path class="st6" d="M250.5,74c1.3,7,3.9,11.6,5.9,14.3c3.7,5.1,8.4,8.6,14.8,13.2c2.3,1.7,4,2.8,5.4,3.7"/>
			</g>
		</g>
	</g>
</g>
</svg>
