<?xml version="1.0" standalone="no"?>
<!DOCTYPE svg PUBLIC "-//W3C//DTD SVG 20010904//EN"
 "http://www.w3.org/TR/2001/REC-SVG-20010904/DTD/svg10.dtd">
<svg version="1.0" xmlns="http://www.w3.org/2000/svg"
 width="700.000000pt" height="700.000000pt" viewBox="0 0 700.000000 700.000000"
 preserveAspectRatio="xMidYMid meet">
<metadata>
Created by potrace 1.14, written by Peter Selinger 2001-2017
</metadata>
<g transform="translate(0.000000,700.000000) scale(0.100000,-0.100000)"
fill="#000000" stroke="none">
<path d="M3278 6995 c-1 -1 -42 -5 -89 -9 -47 -4 -95 -8 -106 -10 -11 -3 -44
-7 -74 -11 -313 -38 -709 -158 -1024 -311 -180 -87 -448 -247 -555 -331 -8 -6
-51 -40 -95 -74 -342 -266 -650 -623 -875 -1014 -47 -83 -170 -327 -170 -340
0 -3 -9 -24 -20 -48 -57 -123 -157 -435 -186 -582 -2 -11 -10 -54 -19 -95 -29
-147 -36 -199 -52 -370 -10 -110 -10 -544 0 -635 84 -751 359 -1395 826 -1940
600 -698 1445 -1134 2351 -1213 167 -14 719 -5 750 12 3 2 28 6 57 10 242 29
609 131 868 241 1032 441 1789 1339 2044 2425 16 69 32 145 36 170 4 25 9 52
10 60 3 16 20 132 31 215 9 73 12 537 3 630 -15 164 -21 220 -24 225 -2 3 -6
30 -10 60 -4 30 -22 123 -40 205 -53 232 -102 385 -197 610 -387 911 -1160
1625 -2103 1943 -168 57 -420 119 -555 137 -19 3 -46 7 -60 10 -13 2 -52 7
-86 11 -33 3 -74 8 -90 10 -32 5 -540 14 -546 9z"/>
</g>
</svg>
